<svg width="16" height="16" viewBox="0 0 16 16" fill="none" xmlns="http://www.w3.org/2000/svg">
<path d="M13.4265 3.74689C14.1438 4.94638 14.4503 6.35 14.2988 7.74205V8.54108C14.2979 9.38236 14.5167 10.2091 14.9333 10.9382M4.78191 6.94302C4.78191 6.09535 5.11614 5.2824 5.71106 4.68301C6.30599 4.08362 7.11288 3.74689 7.95423 3.74689C8.79557 3.74689 9.60246 4.08362 10.1974 4.68301C10.7923 5.2824 11.1265 6.09535 11.1265 6.94302V7.74205C11.1265 9.47091 11.6831 11.1531 12.7127 12.5362M7.95422 6.94302V8.54108C7.95169 10.8258 8.6436 13.0566 9.93691 14.9333M4.78191 10.1391C4.97598 11.809 5.45915 13.4316 6.20945 14.9333M2.32338 13.3353C1.78825 11.5217 1.54722 9.63301 1.60961 7.74205V6.94302C1.60657 5.81947 1.89751 4.71496 2.45313 3.74078C3.00874 2.76661 3.8094 1.95719 4.77442 1.39409C5.73943 0.830987 6.83471 0.534097 7.9499 0.533334C9.06508 0.532572 10.1608 0.827965 11.1265 1.38975" stroke="#A6AFC2" stroke-width="1.06667" stroke-linecap="square" stroke-linejoin="round"/>
</svg>
