<svg width="16" height="16" viewBox="0 0 16 16" fill="none" xmlns="http://www.w3.org/2000/svg">
<rect width="16" height="16" rx="8" fill="#FF8B00"/>
<g clip-path="url(#clip0_2_4551)">
<path d="M6.96541 6.34221C6.98624 6.28414 7.04465 6.24836 7.10586 6.25637C7.16705 6.26433 7.21441 6.31384 7.21966 6.37532L7.42938 8.82553L7.82209 7.41C7.83816 7.35212 7.89119 7.31237 7.95147 7.31388C8.01148 7.3152 8.06296 7.35711 8.07646 7.41561L8.29515 8.36434L8.66854 6.79553C8.68311 6.73415 8.73943 6.69212 8.80237 6.69481C8.86538 6.6978 8.91739 6.74523 8.92616 6.80769L9.20482 8.79431L9.32974 8.39055C9.34676 8.3356 9.39759 8.29814 9.45511 8.29814H12.4103V7.62167C12.4103 6.9972 11.904 6.49079 11.2792 6.49079H9.48376V4.69531C9.48376 4.07055 8.9775 3.56433 8.35279 3.56433H7.69955H7.5965C6.97193 3.56433 6.46538 4.07057 6.46538 4.69531V6.49077H4.66984C4.04559 6.49077 3.53906 6.99718 3.53906 7.62164V8.31255H6.25839L6.96541 6.34221Z" fill="white"/>
<path d="M9.28218 9.43324C9.26398 9.49193 9.20737 9.53025 9.14628 9.52526C9.08499 9.52027 9.03536 9.47354 9.02685 9.41264L8.76318 7.53288L8.42111 8.97015C8.40703 9.02928 8.35419 9.07102 8.29345 9.07102C8.29331 9.07102 8.29314 9.07102 8.29297 9.07102C8.23203 9.07078 8.17925 9.02866 8.16556 8.96924L7.93719 7.97841L7.48767 9.59865C7.47175 9.65588 7.41968 9.69477 7.36129 9.69477C7.35724 9.69477 7.35317 9.69458 7.34907 9.69425C7.28579 9.68835 7.23585 9.63804 7.23045 9.57475L7.0098 6.99664L6.47466 8.48815C6.45596 8.54033 6.40655 8.57507 6.35114 8.57507H3.55688C3.65015 9.10569 4.11314 9.50898 4.67024 9.50898H6.46577V11.3045C6.46577 11.9292 6.97232 12.4357 7.59689 12.4357H7.69994H8.35318C8.97789 12.4357 9.48415 11.9292 9.48415 11.3045V9.50898H11.2796C11.8422 9.50898 12.3086 9.09838 12.3958 8.56063H9.55222L9.28218 9.43324Z" fill="white"/>
<path d="M12.8688 8.29814H12.4107H9.45547C9.39795 8.29814 9.3471 8.33561 9.3301 8.39054L9.20518 8.79431L8.92653 6.80768C8.91775 6.74522 8.86575 6.6978 8.80274 6.6948C8.7398 6.69211 8.68348 6.73415 8.6689 6.79553L8.29551 8.36434L8.07682 7.41561C8.06332 7.3571 8.01184 7.31519 7.95183 7.31387C7.89155 7.31236 7.83852 7.35214 7.82245 7.41L7.42974 8.82553L7.22002 6.37531C7.21477 6.31384 7.16741 6.2643 7.10623 6.25636C7.04499 6.24836 6.98661 6.28413 6.96577 6.3422L6.2588 8.31257H3.53945H3.13125C3.05877 8.31257 3 8.37134 3 8.44384C3 8.5163 3.05874 8.57507 3.13125 8.57507H3.55688H6.35108C6.40652 8.57507 6.45591 8.54032 6.47461 8.48815L7.00974 6.99664L7.2304 9.57474C7.23582 9.63804 7.28576 9.68835 7.34901 9.69424C7.35311 9.69458 7.35719 9.69477 7.36124 9.69477C7.41965 9.69477 7.4717 9.65588 7.48762 9.59865L7.93713 7.97839L8.16551 8.96922C8.1792 9.02865 8.23197 9.07076 8.29292 9.071C8.29309 9.071 8.29326 9.071 8.2934 9.071C8.35413 9.071 8.40698 9.02928 8.42105 8.97013L8.76313 7.53288L9.0268 9.41264C9.03531 9.47354 9.08496 9.52029 9.14622 9.52526C9.20732 9.53024 9.26392 9.49193 9.28212 9.43323L9.55217 8.56058H12.3958H12.8688C12.9413 8.56058 13 8.50184 13 8.42936C13 8.35688 12.9413 8.29814 12.8688 8.29814Z" fill="#FF8B00"/>
</g>
<defs>
<clipPath id="clip0_2_4551">
<rect width="10" height="10" fill="white" transform="translate(3 3)"/>
</clipPath>
</defs>
</svg>
