<svg width="32" height="32" viewBox="0 0 32 32" fill="none" xmlns="http://www.w3.org/2000/svg">
<rect width="32" height="32" rx="5" fill="#E2F8EB"/>
<path d="M17.2529 9.88235C16.9526 10.4015 16.7803 11.0041 16.7803 11.647C16.7803 12.3895 17.0097 13.0785 17.4014 13.647H14.5879V14.5884H18.3525V14.5835C18.9127 14.9576 19.5854 15.1762 20.3096 15.1763C20.6088 15.1763 20.8993 15.138 21.1768 15.0679V22.5884C21.1767 23.368 20.5443 23.9995 19.7646 23.9995H10.3525C9.57308 23.9993 8.9415 23.3679 8.94141 22.5884V17.4117H10.3525C12.1718 17.4117 13.6474 15.937 13.6475 14.1177V9.88235H17.2529ZM11.7646 20.2349H18.3525V19.2945H11.7646V20.2349ZM14.5879 17.4117H18.3525V16.4702H14.5879V17.4117ZM8.94141 14.1177C8.94144 14.8972 9.57305 15.5296 10.3525 15.5298C11.1322 15.5298 11.7646 14.8974 11.7646 14.1177V11.2945C11.7646 11.0346 11.5538 10.8238 11.2939 10.8238C11.0341 10.8239 10.8232 11.0346 10.8232 11.2945V14.5884H9.88281V11.2945C9.88281 10.5148 10.5143 9.88245 11.2939 9.88235C12.0736 9.88235 12.7061 10.5148 12.7061 11.2945V14.1177C12.706 15.4172 11.652 16.4702 10.3525 16.4702C9.05325 16.47 8.00003 15.417 8 14.1177V9.88235H8.94141V14.1177Z" fill="#051438"/>
<path fill-rule="evenodd" clip-rule="evenodd" d="M17.6628 11.6471C17.6628 10.1851 18.8479 9 20.3099 9C21.7718 9 22.9569 10.1851 22.9569 11.6471C22.9569 13.109 21.7718 14.2941 20.3099 14.2941C18.8479 14.2941 17.6628 13.109 17.6628 11.6471ZM20.1587 12.7802L21.683 10.8749L21.4074 10.6545L20.1081 12.2786L19.1876 11.5115L18.9616 11.7826L20.1587 12.7802Z" fill="#27AE60"/>
</svg>
