<svg width="32" height="32" viewBox="0 0 32 32" fill="none" xmlns="http://www.w3.org/2000/svg">
<rect width="32" height="32" rx="5" fill="#F7E3E3"/>
<path d="M17.2529 9.88235C16.9526 10.4015 16.7803 11.0041 16.7803 11.647C16.7803 12.3895 17.0097 13.0785 17.4014 13.647H14.5879V14.5884H18.3525V14.5835C18.9127 14.9576 19.5854 15.1762 20.3096 15.1763C20.6088 15.1763 20.8993 15.138 21.1768 15.0679V22.5884C21.1767 23.368 20.5443 23.9995 19.7646 23.9995H10.3525C9.57308 23.9993 8.9415 23.3679 8.94141 22.5884V17.4117H10.3525C12.1718 17.4117 13.6474 15.937 13.6475 14.1177V9.88235H17.2529ZM11.7646 20.2349H18.3525V19.2945H11.7646V20.2349ZM14.5879 17.4117H18.3525V16.4702H14.5879V17.4117ZM8.94141 14.1177C8.94144 14.8972 9.57305 15.5296 10.3525 15.5298C11.1322 15.5298 11.7646 14.8974 11.7646 14.1177V11.2945C11.7646 11.0346 11.5538 10.8238 11.2939 10.8238C11.0341 10.8239 10.8232 11.0346 10.8232 11.2945V14.5884H9.88281V11.2945C9.88281 10.5148 10.5143 9.88245 11.2939 9.88235C12.0736 9.88235 12.7061 10.5148 12.7061 11.2945V14.1177C12.706 15.4172 11.652 16.4702 10.3525 16.4702C9.05325 16.47 8.00003 15.417 8 14.1177V9.88235H8.94141V14.1177Z" fill="#051438"/>
<path fill-rule="evenodd" clip-rule="evenodd" d="M17.7059 11.6471C17.7059 10.1851 18.891 9 20.3529 9C21.8149 9 23 10.1851 23 11.6471C23 13.109 21.8149 14.2941 20.3529 14.2941C18.891 14.2941 17.7059 13.109 17.7059 11.6471ZM20.1765 11.8235V10.4118H20.5294V11.8235H20.1765ZM20.5294 12.5294V12.8859H20.1765V12.5294H20.5294Z" fill="#FF2C2C"/>
</svg>
