<svg width="18" height="18" viewBox="0 0 18 18" fill="none" xmlns="http://www.w3.org/2000/svg">
<path fill-rule="evenodd" clip-rule="evenodd" d="M3.60005 15.9515V0.6C3.60005 0.268629 3.86867 0 4.20005 0C4.53142 0 4.80005 0.268629 4.80005 0.6V15.9515L6.95152 13.8C7.18583 13.5657 7.56573 13.5657 7.80005 13.8C8.03436 14.0343 8.03436 14.4142 7.80005 14.6485L4.62431 17.8243C4.39 18.0586 4.0101 18.0586 3.77578 17.8243L0.600046 14.6485C0.365731 14.4142 0.365731 14.0343 0.600045 13.8C0.83436 13.5657 1.21426 13.5657 1.44857 13.8L3.60005 15.9515ZM18 4.2C18 4.53137 17.7314 4.8 17.4 4.8H11.4C11.0687 4.8 10.8 4.53137 10.8 4.2C10.8 3.86863 11.0687 3.6 11.4 3.6H17.4C17.7314 3.6 18 3.86863 18 4.2ZM15.6 9C15.6 9.33137 15.3314 9.6 15 9.6H11.4C11.0687 9.6 10.8 9.33137 10.8 9C10.8 8.66863 11.0687 8.4 11.4 8.4H15C15.3314 8.4 15.6 8.66863 15.6 9ZM13.2 13.8C13.2 14.1314 12.9314 14.4 12.6 14.4H11.4C11.0687 14.4 10.8 14.1314 10.8 13.8C10.8 13.4686 11.0687 13.2 11.4 13.2H12.6C12.9314 13.2 13.2 13.4686 13.2 13.8Z" fill="#0B0C7D"/>
</svg>
