<svg width="16" height="16" viewBox="0 0 16 16" fill="none" xmlns="http://www.w3.org/2000/svg">
<path fill-rule="evenodd" clip-rule="evenodd" d="M7.24553 7.99978L1.57621 2.33046C1.38095 2.13519 1.38095 1.81861 1.57621 1.62335L1.62335 1.57621C1.81861 1.38095 2.13519 1.38095 2.33046 1.57621L7.99978 7.24553L13.6691 1.57621C13.8644 1.38095 14.1809 1.38095 14.3762 1.57621L14.4233 1.62335C14.6186 1.81861 14.6186 2.13519 14.4233 2.33046L8.75403 7.99978L14.4233 13.6691C14.6186 13.8644 14.6186 14.1809 14.4233 14.3762L14.3762 14.4233C14.1809 14.6186 13.8644 14.6186 13.6691 14.4233L7.99978 8.75403L2.33046 14.4233C2.13519 14.6186 1.81861 14.6186 1.62335 14.4233L1.57621 14.3762C1.38095 14.1809 1.38095 13.8644 1.57621 13.6691L7.24553 7.99978Z" fill="#0B0C7D" stroke="#0B0C7D" stroke-width="0.5"/>
</svg>
